<svg id="Capa_1" enable-background="new 0 0 511.994 511.994" height="512" viewBox="0 0 511.994 511.994" width="512" xmlns="http://www.w3.org/2000/svg"><g><path d="m323.567 236.83 39.43 97.133-39.43 100.057h-91.85c-53.22 0-96.53-43.31-96.53-96.54v-4.12c0-53.22 43.31-96.53 96.53-96.53z" fill="#ff5e94"/><path d="m511.947 333.364v4.12c0 48.12-35.4 88.14-81.53 95.37v64.14c0 6.23-3.84 11.81-9.66 14.02-1.74.66-3.55.98-5.33.98-4.2 0-8.31-1.76-11.21-5.02l-64.99-72.96h-15.66v-197.18h91.85c53.23-.001 96.53 43.299 96.53 96.53z" fill="#ff3980"/><path d="m188.427 0 40.95 98.589-40.95 98.591h-15.65l-65 72.96c-2.9 3.26-7 5.03-11.2 5.03-1.79 0-3.6-.32-5.34-.99-5.81-2.21-9.66-7.79-9.66-14.01v-64.15c-46.13-7.23-81.53-47.24-81.53-95.37v-4.12c0-53.23 43.3-96.53 96.53-96.53z" fill="#ffea80"/><path d="m376.805 96.53v4.12c0 53.23-43.3 96.53-96.53 96.53h-91.85v-197.18h91.85c53.23 0 96.53 43.3 96.53 96.53z" fill="#f3d332"/><circle cx="323.568" cy="335.424" fill="#e7f2ff" r="18.582"/><circle cx="232.112" cy="335.424" fill="#e7f2ff" r="18.582"/><circle cx="415.027" cy="335.421" fill="#9dcfff" r="18.582"/><path d="m342.157 335.424c0 10.26-8.32 18.58-18.59 18.58v-37.16c10.27 0 18.59 8.31 18.59 18.58z" fill="#9dcfff"/><circle cx="96.97" cy="98.591" fill="#3ba9ff" r="18.582"/><circle cx="188.426" cy="98.591" fill="#3ba9ff" r="18.582"/><g fill="#0081ff"><path d="m207.015 98.59c0 10.26-8.32 18.58-18.59 18.58v-37.16c10.27 0 18.59 8.32 18.59 18.58z"/><circle cx="279.885" cy="98.59" r="18.582"/></g></g></svg>